<svg width="139" height="201" viewBox="0 0 139 201" fill="none" xmlns="http://www.w3.org/2000/svg">
<g clip-path="url(#clip0_9_686)">
<path d="M12.858 6.85175H83.7627C87.1842 6.85174 90.5039 8.01704 93.1762 10.1561C95.8484 12.2951 97.7141 15.2806 98.4666 18.6218L134.293 177.698C134.684 179.433 134.691 181.233 134.313 182.971C133.936 184.709 133.183 186.343 132.108 187.759C131.033 189.175 129.661 190.339 128.089 191.168C126.518 191.997 124.784 192.472 123.009 192.56L50.1184 196.155C46.2153 196.347 42.3756 195.112 39.3158 192.679C36.2559 190.245 34.185 186.781 33.4894 182.931L13.1663 70.4629L11.6544 70.8954L7.76572 49.5784L9.32207 49.1889L3.64918 17.7949C3.40619 16.4503 3.46254 15.0685 3.81421 13.7481C4.16587 12.4278 4.80418 11.2013 5.68364 10.1562C6.56311 9.11113 7.66206 8.27312 8.90216 7.70194C10.1423 7.13075 11.493 6.84046 12.858 6.85176V6.85175Z" fill="#3F3D56"/>
<path d="M74.4282 10.281H82.7049C85.0818 10.281 87.3872 11.0948 89.2384 12.5872C91.0897 14.0796 92.3753 16.1609 92.882 18.4856L127.271 176.264C127.469 177.172 127.469 178.112 127.27 179.021C127.072 179.929 126.68 180.784 126.121 181.527C125.563 182.27 124.851 182.883 124.033 183.325C123.216 183.767 122.314 184.027 121.387 184.088L48.7321 188.855C46.6824 188.989 44.6549 188.364 43.0367 187.097C41.4185 185.831 40.3228 184.012 39.9586 181.988L10.6145 18.9094C10.4246 17.8539 10.4684 16.7695 10.7428 15.7328C11.0173 14.6961 11.5156 13.7323 12.2028 12.9094C12.89 12.0866 13.7492 11.4247 14.7198 10.9706C15.6904 10.5164 16.7487 10.281 17.8201 10.281H25.6719C26.4318 10.281 27.1705 10.5318 27.7737 10.9945C28.3769 11.4573 28.8109 12.1062 29.0084 12.8407V12.8407C29.1828 13.4892 29.566 14.0621 30.0985 14.4706C30.631 14.8791 31.2831 15.1005 31.954 15.1005H69.2291C70.5428 15.1005 71.8081 14.6041 72.772 13.7106C73.7359 12.8171 74.3274 11.5922 74.4282 10.281L74.4282 10.281Z" fill="white"/>
<path d="M16.2676 37.1077H95.0876L103.485 74.982L23.6347 76.4569L16.2676 37.1077Z" fill="#6666FF"/>
<path d="M91.1165 108.833H109.673L110.262 112.389H91.7058L91.1165 108.833Z" fill="#6666FF"/>
<path d="M106.214 90.6918L27.5157 92.3601L27.5235 92.7308L106.222 91.0625L106.214 90.6918Z" fill="#2F2E41"/>
<path d="M108.621 101.628L28.4412 103.482L28.4497 103.853L108.63 101.999L108.621 101.628Z" fill="#2F2E41"/>
<path d="M98.7782 146.886H117.334L117.924 150.442H99.3675L98.7782 146.886Z" fill="#6666FF"/>
<path d="M113.876 128.745L35.1773 130.413L35.1852 130.784L113.884 129.116L113.876 128.745Z" fill="#2F2E41"/>
<path d="M116.283 139.681L36.1028 141.535L36.1114 141.906L116.292 140.052L116.283 139.681Z" fill="#2F2E41"/>
</g>
<defs>
<clipPath id="clip0_9_686">
<rect width="137.91" height="200" fill="white" transform="translate(0.944244 0.940674)"/>
</clipPath>
</defs>
</svg>
